<?xml version="1.0" encoding="UTF-8" standalone="no"?>
<!-- Created with Inkscape (http://www.inkscape.org/) -->

<svg
   xmlns:dc="http://purl.org/dc/elements/1.1/"
   xmlns:cc="http://creativecommons.org/ns#"
   xmlns:rdf="http://www.w3.org/1999/02/22-rdf-syntax-ns#"
   xmlns:svg="http://www.w3.org/2000/svg"
   xmlns="http://www.w3.org/2000/svg"
   xmlns:sodipodi="http://sodipodi.sourceforge.net/DTD/sodipodi-0.dtd"
   xmlns:inkscape="http://www.inkscape.org/namespaces/inkscape"
   width="190.98264mm"
   height="71.828125mm"
   viewBox="0 0 676.71013 254.5091"
   id="svg2"
   version="1.1"
   inkscape:version="0.91 r13725"
   sodipodi:docname="Double Mountain Transparent.svg"
   inkscape:export-filename="/Users/marcsteele/Google Drive/Solid Radio/Logos/Simple Mountain/Double Mountain Transparent.png"
   inkscape:export-xdpi="90"
   inkscape:export-ydpi="90">
  <defs
     id="defs4" />
  <sodipodi:namedview
     id="base"
     pagecolor="#ffffff"
     bordercolor="#666666"
     borderopacity="1.0"
     inkscape:pageopacity="0"
     inkscape:pageshadow="2"
     inkscape:zoom="1.4"
     inkscape:cx="540.12979"
     inkscape:cy="104.48963"
     inkscape:document-units="px"
     inkscape:current-layer="layer1"
     showgrid="false"
     inkscape:window-width="1920"
     inkscape:window-height="962"
     inkscape:window-x="0"
     inkscape:window-y="1"
     inkscape:window-maximized="1"
     fit-margin-top="0"
     fit-margin-left="0"
     fit-margin-right="0"
     fit-margin-bottom="0" />
  <metadata
     id="metadata7">
    <rdf:RDF>
      <cc:Work
         rdf:about="">
        <dc:format>image/svg+xml</dc:format>
        <dc:type
           rdf:resource="http://purl.org/dc/dcmitype/StillImage" />
        <dc:title></dc:title>
      </cc:Work>
    </rdf:RDF>
  </metadata>
  <g
     inkscape:label="Layer 1"
     inkscape:groupmode="layer"
     id="layer1"
     transform="translate(-15.134941,-27.250391)">
    <g
       id="g4379">
      <ellipse
         transform="matrix(0.02322756,-0.9997302,0.40820926,0.91288838,0,0)"
         ry="84.10714"
         rx="11.081319"
         cy="373.43445"
         cx="233.2476"
         id="path4154"
         style="fill:#ffffff;fill-opacity:1;stroke:#ffffff;stroke-width:3.22073746;stroke-linecap:round;stroke-linejoin:round;stroke-miterlimit:4;stroke-dasharray:none;stroke-opacity:1" />
      <ellipse
         style="fill:#ffffff;fill-opacity:1;stroke:#ffffff;stroke-width:5.00838661;stroke-linecap:round;stroke-linejoin:round;stroke-miterlimit:4;stroke-dasharray:none;stroke-opacity:1"
         id="ellipse4176"
         cx="-803.02893"
         cy="-679.52966"
         rx="16.884188"
         ry="133.48398"
         transform="matrix(0.25022592,-0.96818748,-0.39818938,0.91730323,0,0)" />
      <path
         inkscape:connector-curvature="0"
         id="path4178"
         d="m 91.428572,105.93363 c 11.428568,36.42857 12.142858,37.14286 12.142858,37.14286 l 18.57143,-37.85714 15.71428,40 17.85715,-37.85715"
         style="fill:none;fill-rule:evenodd;stroke:#ffffff;stroke-width:6;stroke-linecap:round;stroke-linejoin:round;stroke-miterlimit:4;stroke-dasharray:none;stroke-opacity:1" />
      <path
         inkscape:connector-curvature="0"
         id="path4180"
         d="m 131.15183,119.31387 c -6.70655,-16.88407 -6.75288,-16.97258 -8.88457,-16.97258 -2.08043,0 -2.37419,0.46549 -10.08373,15.9781 -4.36748,8.78796 -8.10867,15.69868 -8.31375,15.35715 -0.7002,-1.16606 -9.102516,-27.92675 -9.102516,-28.99077 0,-0.5835 2.924133,-8.099718 6.498076,-16.702697 8.72618,-21.005145 19.49488,-48.267001 21.05775,-53.309409 l 1.26959,-4.096201 1.92375,5.524772 c 2.7239,7.822727 11.39526,29.603299 20.19574,50.727282 l 7.52384,18.059653 -7.13238,15.15463 c -3.92281,8.33505 -7.37487,15.39944 -7.67124,15.69864 -0.29637,0.29921 -3.57262,-7.09365 -7.28056,-16.42857 z"
         style="fill:#ffffff;fill-opacity:1;stroke:#ffffff;stroke-width:4.28571415;stroke-linecap:round;stroke-linejoin:round;stroke-miterlimit:4;stroke-dasharray:none;stroke-opacity:1" />
      <g
         transform="matrix(0.70687249,0,0,0.70687249,93.722182,83.096369)"
         id="g4207">
        <ellipse
           transform="matrix(-0.25022592,-0.96818748,0.39818938,0.91730323,0,0)"
           ry="133.48398"
           rx="16.884188"
           cy="855.57507"
           cx="652.13434"
           id="ellipse4209"
           style="fill:#ffffff;fill-opacity:1;stroke:#ffffff;stroke-width:5.00838661;stroke-linecap:round;stroke-linejoin:round;stroke-miterlimit:4;stroke-dasharray:none;stroke-opacity:1" />
        <ellipse
           style="fill:#ffffff;fill-opacity:1;stroke:#ffffff;stroke-width:5.00838661;stroke-linecap:round;stroke-linejoin:round;stroke-miterlimit:4;stroke-dasharray:none;stroke-opacity:1"
           id="ellipse4211"
           cx="-803.02893"
           cy="-679.52966"
           rx="16.884188"
           ry="133.48398"
           transform="matrix(0.25022592,-0.96818748,-0.39818938,0.91730323,0,0)" />
        <path
           inkscape:connector-curvature="0"
           id="path4213"
           d="m 91.428572,105.93363 c 11.428568,36.42857 12.142858,37.14286 12.142858,37.14286 l 18.57143,-37.85714 15.71428,40 17.85715,-37.85715"
           style="fill:none;fill-rule:evenodd;stroke:#ffffff;stroke-width:6;stroke-linecap:round;stroke-linejoin:round;stroke-miterlimit:4;stroke-dasharray:none;stroke-opacity:1" />
        <path
           inkscape:connector-curvature="0"
           id="path4215"
           d="m 131.15183,119.31387 c -6.70655,-16.88407 -6.75288,-16.97258 -8.88457,-16.97258 -2.08043,0 -2.37419,0.46549 -10.08373,15.9781 -4.36748,8.78796 -8.10867,15.69868 -8.31375,15.35715 -0.7002,-1.16606 -9.102516,-27.92675 -9.102516,-28.99077 0,-0.5835 2.924133,-8.099718 6.498076,-16.702697 8.72618,-21.005145 19.49488,-48.267001 21.05775,-53.309409 l 1.26959,-4.096201 1.92375,5.524772 c 2.7239,7.822727 11.39526,29.603299 20.19574,50.727282 l 7.52384,18.059653 -7.13238,15.15463 c -3.92281,8.33505 -7.37487,15.39944 -7.67124,15.69864 -0.29637,0.29921 -3.57262,-7.09365 -7.28056,-16.42857 z"
           style="fill:#ffffff;fill-opacity:1;stroke:#ffffff;stroke-width:4.28571415;stroke-linecap:round;stroke-linejoin:round;stroke-miterlimit:4;stroke-dasharray:none;stroke-opacity:1" />
      </g>
    </g>
    <text
       xml:space="preserve"
       style="font-style:normal;font-variant:normal;font-weight:bold;font-stretch:normal;font-size:119.93758392px;line-height:125%;font-family:Futura;-inkscape-font-specification:'Futura Bold';letter-spacing:0px;word-spacing:0px;fill:#ffffff;fill-opacity:1;stroke:none;stroke-width:1px;stroke-linecap:butt;stroke-linejoin:miter;stroke-opacity:1"
       x="268.6528"
       y="128.59724"
       id="text4390"
       sodipodi:linespacing="125%"><tspan
         sodipodi:role="line"
         id="tspan4392"
         x="268.6528"
         y="128.59724">SOLID</tspan><tspan
         sodipodi:role="line"
         x="268.6528"
         y="278.51923"
         id="tspan4394">RADIO</tspan></text>
  </g>
</svg>
